<svg id="Layer_1" data-name="Layer 1" xmlns="http://www.w3.org/2000/svg" viewBox="0 0 288 288"><defs><style>.cls-1{fill:#fff;}.cls-2{fill:none;}</style></defs><title>SoT_white</title><path class="cls-1" d="M65.23,166.86v-10H67.7c2.16-2.8,5-5.1,7.28-8,.29.43.66.75.74,1.13a14.71,14.71,0,0,0,3.5,6.46c1.08,1.29,2.45,2.51,2.92,4.45l-3.17.29,3.62,3.3-5.73.8c.48,1.15,1,2.18,1.94,2.55l5.56-1.06,1,1.62,5.2-.67,1.83,1.83c1-.2,2.16-.51,3.31-.64,2.2-.23,4.41-.36,6.61-.55a1.35,1.35,0,0,0,.69-.23,1.29,1.29,0,0,1,1.63,0,3.19,3.19,0,0,0,1.45.28c1.57,0,3.13,0,5.24,0l1.25-1.68,1.23,1.7c.16-.16.22-.28.28-.28l7-.41.63-2.45,4.6-1.86v-2.82c2.83-.48,9,1,13.08,1.73-3.9,3.68-6.71,8.13-9.42,12.65.91.9.14,2.12.47,3.13s1,2,1.44,3.09.55,2,.85,3.13l3.14-.75a24.65,24.65,0,0,0,2.58,2.53,13.63,13.63,0,0,0,3.24,1.67,3.64,3.64,0,0,0,2.4-.41,15.17,15.17,0,0,1,8.23-.07c1.37.32,2.78.44,4.14.64l1.44-2.15,5.53,1.83c.52-1.39-.4-2.64-.56-3.85-1.63-1.67-4.16-.89-5.73-2.58l4.85-4.17c-.33-1.14-.87-2.05-1.19-3.08a59.25,59.25,0,0,0-2.88-6.68,15.26,15.26,0,0,1-.69-1.55c-.64-2-1.58-3.9-2.4-5.84a3.08,3.08,0,0,0-2.1-1.91,10.48,10.48,0,0,1-5.33-3.31L144.7,159l-3.41-1.7-3.09,3.12-9.9-1.22c0-.18,0-.31,0-.35,1.55-1.65,3.11-3.29,4.7-5,0-.67.29-1.49-.64-2.17,3-1.79,4.89-4.55,6.51-7.51h1.83c.41-.64-.11-1.55.79-1.89,1.61-.6,2.45-2.1,3.68-3.16a7.86,7.86,0,0,0,.72-1.1l-7.62,4.12-3.67-1a7.56,7.56,0,0,0,0,1.26,9,9,0,0,0,.41,1.29c-3.38,1.5-6.84,2.55-9.6,4.65H121c-1.36-2.17-3.59-3.11-6-3.84l.31-.9c1.55.94,3.21.46,5.35.65l1.64,2.18c1.55-.64,3.12-.73,4.46-1.68a34,34,0,0,1,4.08-2.19,32,32,0,0,1,2.61-12l-1.59-4.48c-2.61-1.35-5-2.63-7.51-3.89s-4.89-2.57-7.4-3.7c-1.51-.69-6.11-3.2-7.17-4.3a38.64,38.64,0,0,1,6.65,2.08c2.24.74,4.33,1.85,6.6,2.49,2.11.6,4,1.79,6.3,2l-3.15-2c.12-2.25-.93-4.47-.57-6.8,0-.17.08-.41,0-.52-1-1.24-.3-2.6-.55-4H129l1.51-3.13h3.21a25.56,25.56,0,0,0,7.46-5.78h2.69c1.58-1,3.15-2.11,4.75-3.13,1.3-.84,2.81-.42,4.18-.56l3.88-3.16h1.86l1-1.58h3.36c.4-1.17,1.29-1.36,2.27-1.56A17.82,17.82,0,0,0,171,86.4c2.11-1.35,4-3,6-4.58a3.42,3.42,0,0,0,3.46.89,25.85,25.85,0,0,0,4-1.82l-.11-.25h3.14l2.9-2.18c1.47.84,2.78.62,4.35-.24s3.65-1.43,5.39.43h3.33a3.34,3.34,0,0,0,0,1.11c1.54,3.65,2.63,7.49,4.53,11a3.43,3.43,0,0,1,.17,1.29l-4.67.84v.65l8.92,2c.32,1.47.61,3.08,1,4.66a15.12,15.12,0,0,0,1.55,4.61c1.5,2.26,2.9,4.6,4.5,6.8a42.21,42.21,0,0,0,3.39,3.7v.53c-1.11.35-.34,1.31-.6,2-1.28,3.07-2.15,6.28-3.24,9.41a5.9,5.9,0,0,0-.31,3c.59,3.56.67,4.77-.06,7.17a13.35,13.35,0,0,0-1.09,3.76,2.67,2.67,0,0,1-.74,1.5c-1.14,1.36-2.34,2.67-3.5,4,.3,1.09.13,2.05.44,3.1,1,3.43,3.05,6.44,3.87,9.94a1.53,1.53,0,0,0,.87.86,23.14,23.14,0,0,0,2.49.63l1.87,1.5v3.15c-1.08,1.24-1.63,2.89-3,3.84a44.2,44.2,0,0,0-6.1,5.58c-.19.18-.34.44-.56.54-2.3,1.06-2.85,3.06-2.9,5.33,0,.79,0,1.57,0,2.32l-1.94,1.93c-.89,3.56-1.12,7.23-4.71,9.68a4.43,4.43,0,0,0-2.15-3.49h-2c-3.06-1.76-3.52-2.09-5.33-4.85a3.41,3.41,0,0,1-.74-2.34,5.61,5.61,0,0,0,.1-2.46,10.62,10.62,0,0,1-.06-3.14,3.48,3.48,0,0,0-1.07-2.71c-.44-.43-.86-.87-1.27-1.29a12.26,12.26,0,0,0-2.65.05,11.52,11.52,0,0,0-2.38,1l-2-1.08v3l.72.18c1,2,1,2,.27,3.83l1.38,2.8L183.78,186l2.09,1.72c-1.14,2-2.28,3.88-1.8,6.13l-4.16,5.49a10.1,10.1,0,0,1-3,.58,8.17,8.17,0,0,1-2.39-1.3,1.84,1.84,0,0,0,0-.7A63.83,63.83,0,0,1,170.86,185c-1-1.38-.88-3.32-2.19-4.29-1.8,1.18-.21,3.29-1.54,4.57,1,1.08.36,2.38.82,3.43l4,9.26c0,1.29,0,3,0,4.6a4.09,4.09,0,0,0,1.27,3.17,11.63,11.63,0,0,1,1,1.42l2.15.78,1.35-1.76v-1l1.35-2h1l1.36,2v6.12a21.37,21.37,0,0,0-2.38,3c-.68,1.25-2.1,1.6-2.79,2.74a12.07,12.07,0,0,1-.62,1.05c-1.09,1.35-1.26,3-1.54,4.61a42,42,0,0,1-2,7l-3.72,1.45c-.44-1.55,1.37-.94,1.43-2.08-.59-.69-1.23-1.56-2-2.33-1.65-1.71-3.33-3.36-5-5a5.39,5.39,0,0,1-1.45-2.82c-.46-2-.39-4.44-3-5.14v-2.28a7.36,7.36,0,0,1,2.23.75,2.65,2.65,0,0,0,2.39.35c-1.37-1.8-1.84-4.08-3.59-5.28V204c2-.22,3.49-1.81,6-1.27l-1-1.09h-5.71l-3.41,2.61h-4.86c-.54,2.54-1.09,5.09-1.63,7.62l2.07.95v2.7a42.93,42.93,0,0,1-5.17,6l2.76,3.24c-.67,1.2-1.41,2.55-2.31,4.19l.64,5.15a13.84,13.84,0,0,1-7.57-1c-1.08,1-2.64,1-3.52,2.17h-1c.2-3.34-.34-6.69.46-10a20.4,20.4,0,0,0,.06-4.74l-1.51-2.91v-3.07l3.41-1.77.65-2.94-.67-1.18-4.61-1.35v-2.55c-1.88-.46-3.4-1.9-5.64-1.42-.66.54-1.42,1.2-2.21,1.81s-1.18,1.7-2.47,1.82v-3.46l-.26,0-.46-1.67,1.62-1,.64-1.45a4,4,0,0,0-3.55-.81c-1.22,1.19-2.58,2.32-2.28,4.31-.66.84-.92,2-2.05,2.45a5.63,5.63,0,0,0-1.12.76l.61,3.49c-1.74,2.22-4.09,3.45-4.89,6.07l1.77,1.07c1.47-.61,2.79-1.24,4.16-1.72s2.51-1.7,4.51-1.74l-5.32,7.36c.08,2.45,1.06,4.49.67,6.69l-2.64,1.7-6.77-6c.48-3.76.94-7.32,1.43-11.21l-1.53-5.51h-1.86c-.52-1.84.13-3.5.66-5a12.36,12.36,0,0,0,.77-5.15A60.77,60.77,0,0,0,93.9,185.81L86.55,188a20.16,20.16,0,0,0-6.17-7.68c-2.33-1.62-3.57-3.92-5.12-5.79l.5-2.19-1.15-1.57c-1.31-.32-2.2-.51-3.07-.76a10.28,10.28,0,0,1-5.36-2.94C66,166.87,65.55,166.93,65.23,166.86Zm138.79-29a8.19,8.19,0,0,0,.48-1.25A1.52,1.52,0,0,0,204,135c1.29-.84-.28-1.59-.1-2.48a3.85,3.85,0,0,0-.51-2.63c-1.13-1.68-1-3.8-2-5.18.53-2.51,1-4.76,1.43-6.77-.75-2.93-1.45-5.68-2.25-8.79-.58.63-1.27,1-1.25,1.42.06,1.11-.82,1.47-1.37,2.08-.25.28-.76.32-1,.59q-4,3.69-8,7.42c-.11.11-.13.3-.24.54l.67.91-11.15,7.23v1.45l-3.69,2v5.25L172.11,140h6.62l2.15,1.11,3.25-.78c.34-.76.73-1.64,1.29-2.88a28.12,28.12,0,0,1,2.05-2.67c.66-.72,1.18-1.82,2.48-1.59,1.13-1.12,2.79-.86,4.09-1.56.08,0,.28.12.43.19l.06.54c-.84.45-1.67.92-2.53,1.36a7.92,7.92,0,0,0-3.72,4.29,16.31,16.31,0,0,1-4,6.22h-3.09l-2-1.26v-1.79c-2.71-.43-5.42.45-8-.62-1,.78-2.17,1.15-3.17,1.93-1.93,1.52-4.05,2.79-5.67,4.69-.09.11-.29.13-.43.21l-3.65,2.12H164l1.33,3.24h11.31l-.07.82c-1.85.27-3.62.69-5.39,1-2.53.51-5,1.44-7.67,1.18-1-.1-2.07-.23-3.39-.39l2.74,2h2.61l3.05,3.64,5.51-3.8,7,4.43,1.66-.4a12.26,12.26,0,0,0,2.3.32c1.25-.09,2.48-.39,3.73-.48s2.62,0,3.94,0a5.34,5.34,0,0,0,2.08,0c2-.93,4.16-.92,6.2-1.54a17.47,17.47,0,0,0,4.63-1.73c-.07-2.38-1.15-4.4-2-6.63l4.18-2.3-2.82-1.64.69-2.75-1.12-.39c-1-.78,1-1.21.2-2.09-.27-.31.69-1.15.1-1.95A7.94,7.94,0,0,1,204,137.89Z"/><path class="cls-1" d="M159.31,52.81c.35,1,1.46.36,2.09,1,.44.45,1.35.44,2.08.65l-.6,1.16,1.63-.68A21.86,21.86,0,0,0,168.18,56c1.17.18,2.15,1.25,3.5,1a42.71,42.71,0,0,0,7.52,2.79,8.42,8.42,0,0,0,2.31.69c1.6-.08,2.82.9,4.22,1.33s2.65,1.62,3.92,2.54c2.91,2.11,5.79,4.26,8.58,6.61-2-.61-4.3,0-6.13-1.36l-3.9,1.27v-3L185,69.11l-2.3-1.19-1.13,2.82c-3,3-3,3-6.71,3.49l1.23-1.89A1.94,1.94,0,0,0,175,70l-7.44.59a6,6,0,0,0-2.06,3.67c-.23,1.2-1.4,2.21-2.09,3.23h-2.2l-2.64,1.68a26.22,26.22,0,0,1-1.67,2.52c-.85,1-1.85,1.86-2.77,2.8s-2.11,1.91-2.24,3.56c-.05.65-.74,1.24-1.09,1.89a15.65,15.65,0,0,0-.68,1.62l-1.88.82c.13-2.81.37-5.21,2.42-7.1a22.26,22.26,0,0,0,2.32-3l-.74-2.08c-.43-.4-.85-1.43-2.19-1.12l-1.77,2V83l-4,1.5c.69,2.4.56,4.68-1.45,6.66h-4c-3.42,3.82-6.22,7.81-10.26,10.37l-2.48-.43-1.8,5.61-3.18-.44-.64-.69.67-2.26h-1.66l-.09-1.76,2.78.65L121,99.62,124.57,89c-.48.21-.81.35-1.14.51l-4.59,2.23a10,10,0,0,0-1.34.57c-3.77,2.48-4.06,2.58-8,2.59.51,2.16,2.54,3,3.78,4.84l4-.71,3.84-6.82c.16.2.36.36.33.44-1,3.08-1.07,6.48-3,9.25-.47.66-.9,1.36-1.47,2.24-1.61-.8-3-1.56-4.51-2.24-3.06-1.42-6.15-2.8-9.35-4.26a11.93,11.93,0,0,0,.59,3.58c.64,1.28.24,2.52.49,3.6l-1.94,3.1c2,.05,3.49,1,5.22.63,1.29-.26,2.13.79,3.22,1.12A8.89,8.89,0,0,1,113,111.3v1.78l-.74.73a91.4,91.4,0,0,1-8.81-2.63c-3-.9-6-1.53-9.18-2.32v2.51l5.14,3.54v1.77L93.11,123l-.06,1.25c-2.31,1.41-4.66,2.91-7.08,4.29s-4.74,2.54-7.26,3.87l1.77,5.43c-2.3.61-4.7-.49-7,.78-1.4-1.43-1.43-3.25-1.39-5.08l-.73-.73-2.86,2v-6.33l2.54-3c0-1,.36-2.28-.1-3.19s0-2.26-1-3a15.41,15.41,0,0,0-1.5-6.21,2.13,2.13,0,0,1,0-1.53c1.24-2.81,1.73-6,3.64-8.49v-2.09c2.74-3,6.71-4.35,9.81-7.09h3.7c.63-3.64,4.33-3.79,6.85-5.75h2.16a9.82,9.82,0,0,0,4.19-3.67,30.49,30.49,0,0,0,7-2c1.44-.54,2.85-1.17,4.25-1.79a.77.77,0,0,0,.33-.55c.82.22,1.62-.3,2.33.37a1.23,1.23,0,0,0,1.18.14c1.23-1,2.8-.83,4.15-1.4,1.79-.74,3.76-1,5.57-1.73,2.73-1.07,5.56-1.76,8.36-2.58a3.24,3.24,0,0,0,2.55-3.13c-2,2.25-4.45,2.84-7.26,2.61a7.64,7.64,0,0,0-2.52.2,15.15,15.15,0,0,1-4.9.84c-.77-.06-1.55,0-2.23,0l-1,1.6H113.3c-1,1-2,1.94-3,3.09-.88.24-2-.44-2.84.56-1.16-.21-2.35.33-3.54-.35a4.23,4.23,0,0,0-1.89-.21c-2.73-1-4.91-3.53-7.83-.86v3.42l-2.52.17L89.48,85.7c-1.71.79-3.19-1.24-4.83.32,0-.65-.1-1.18.11-1.45,2.07-2.68,3.43-5.8,5.33-8.58a14.4,14.4,0,0,0,1.4-3.09,3,3,0,0,1,1.7-1.72c3.65-1.77,7.24-3.67,10.89-5.44,3.06-1.49,6.18-2.87,9.65-4.47.85.16,2.28-.56,3.39.5l3.63-1.68a4.65,4.65,0,0,0,2.94-4.2c.94-.15,1.9-.38,2.88-.44,3.25-.21,6.56-.08,9.75-.64a64.54,64.54,0,0,1,6.63-.44c1-.08,2-.4,2.93-.5s2,.09,3-.49c.28-.17.9.21,1.08.26,1.48-.12,2.73-.19,4-.32.43,0,1.11.37,1.21-.51Z"/><path class="cls-1" d="M148.56,169.47l1.31.07-.52.83,1,.35v3.8c.93,2.06,1.74,3.81,2.52,5.59s2.77,2.88,3.38,5.11c-1.55-.15-3,.52-4.5-.4-.38-.24-1-.08-1.53-.08-1.66,0-3.32,0-5,0-1.05-.05-2.1-.27-3.18-.42v-6.13a9.22,9.22,0,0,0,1.59-2.8c.56-1.75,1.25-3.59,3.33-4.36C147.61,170.76,148.07,170,148.56,169.47Z"/><path class="cls-1" d="M92.79,129.58l2.12-2.13.52,1.07,1.81-2,2.69-.42.81,1.81c.49-1,.39-2.38,1.89-3.23a74.15,74.15,0,0,1-2.37,9.37c-1.07,1.29-2.19,2.57-3.24,3.9a6.39,6.39,0,0,1-3.33,2.08c-1.16.37-2.33.7-3.66,1.09,0-.33-.11-.7,0-.91,1-1.52,2-3,3.06-4.55l-6-6.85C89.15,129.85,91,129.43,92.79,129.58Z"/><path class="cls-2" d="M110.24,80.06l3.06-3h3.29l1-1.6c.68,0,1.46,0,2.23,0a15.15,15.15,0,0,0,4.9-.84,7.64,7.64,0,0,1,2.52-.2c2.81.23,5.3-.36,7.26-2.61a3.24,3.24,0,0,1-2.55,3.13c-2.8.82-5.63,1.51-8.36,2.58-1.81.71-3.78,1-5.57,1.73-1.35.57-2.92.44-4.15,1.4a1.23,1.23,0,0,1-1.18-.14C112,79.8,111.15,80.32,110.24,80.06Z"/></svg>